<?xml version="1.0" encoding="utf-8"?>
<!-- Generator: Adobe Illustrator 27.1.0, SVG Export Plug-In . SVG Version: 6.00 Build 0)  -->
<svg version="1.1" id="Layer_1" xmlns="http://www.w3.org/2000/svg" xmlns:xlink="http://www.w3.org/1999/xlink" x="0px" y="0px"
	 viewBox="0 0 500 418" style="enable-background:new 0 0 500 418;" xml:space="preserve">
<style type="text/css">
	.st0{fill:#AC9AF5;}
</style>
<path class="st0" d="M343.3,125.6c0,20.5-2.5,41-3.3,61.5c-0.4,11-0.6,21.9-0.7,32.9c0,4.2,0.8,8.5-2.9,11.4
	c-3.7,2.9-9.4,4.6-13.6,6.8c-19.1,10-37.5,21.3-55.4,33.3c-4.5,3-9,6.1-13.5,9.1c-3.2,2.1-8.2,7.3-12.3,6.9
	c-3.8-0.3-9.3-5.5-12.5-7.4c-5.1-3.1-10.3-6-15.4-9c-18.7-10.8-37.3-22.1-54.9-34.6c-3.4-2.4-7.9-4.1-8.7-8.2
	c-1-5,0.1-11.3,0.2-16.4c0.1-11.2,0.3-22.4,0.5-33.7c0.2-10.9-0.7-22.7,1.2-33.5c1.5-8.4,12.3-14.9,18.1-20.7
	c16.1-16,32.1-32,49.1-47.2c4.6-4.1,9.1-8.2,13.7-12.2c1.6-1.4,4.1-4.5,6.4-4.7c2.1-0.2,4.4,1.6,6.3,2.6
	c10.7,5.6,20.9,12.3,31.3,18.6c21.8,13.3,44.2,25.8,63.9,42.1C341.7,124.1,342.5,124.9,343.3,125.6z M334.7,227.4
	c0.5-33.1,1.3-65.9,5.4-98.7c-14.4-13.1-31.7-22.9-48.3-32.9c-17-10.3-34.3-20.3-50.7-31.5c-30,25.1-58.5,52-85.9,79.9
	c0.3,28.1-1.5,56.2-1.5,84.3c14.7,10,29.5,19.6,44.8,28.7c8,4.7,16,9.3,24.1,13.9c3.7,2.1,7.3,4.2,11,6.4c2.9,1.8,6.2,4.9,9.5,5.9
	C272.2,262.8,302.2,243.4,334.7,227.4z"/>
<path class="st0" d="M76,290.6c-0.6,0.4-1.1,0.8-1.6,1.1c1.8,3.4,5.9,9.2,4.9,13.4c-2.8,0.3-4.9,1.9-6,5.1c-2.4-5.2-3-10.4-6.6-14.5
	c-6.6,3.6-13.1,7.1-19.7,10.7c-6.9-7.4-14.9-13.3-22.7-19.4c1.6-1.7,16.8-11,23.7-14.6c8.7,5.5,17.3,11,25.9,16.6
	C74.4,289.5,75,289.9,76,290.6z M66.7,290.5c0.4,0.5,0.6,0.9,0.9,1.2c3.1,3.4,4.9,8,7.1,12c0.6-0.3,1-0.6,1.4-0.8
	c-0.5-5.8-3.2-11-7.4-13.9C68.1,289.4,67.4,289.9,66.7,290.5z"/>
<path class="st0" d="M13.1,77.6c14.7-2.4,46.4-6.2,49-6.1c2.2,1.5,1.7,8.2,2,10.4c0.6,4.3,1.1,8.7,1.6,13c1,7.8,1.9,15.6,3,23.4
	c0.3,1.9,2,6.8,0.8,8.5c-1.4,2-5.4,1.7-7.6,2c-8.9,1.2-17.8,2.3-26.6,3.4c-4,0.5-8,1-12,1.5c-2,0.3-6.7,1.8-8.6,0.5
	c-3.3-2.4-2.8-15.2-3.3-19c-1.1-8.4-2.2-16.9-3.1-25.3c-0.3-2.9-1.8-7.7-1-10.4c0.7-2.2,2.7-5,5.3-2.2
	C12.6,77.4,12.8,77.5,13.1,77.6z M60.6,73.8c-16,1.8-31.8,3.6-47.7,5.4c-0.3,0.5-0.7,1.1-1.2,1.7c2.3,16.4,3.8,32.8,6,49.3
	c16.3-1.6,32.3-3.7,48.6-5.4C64.6,107.8,62.5,91,60.6,73.8z"/>
<path class="st0" d="M460.7,66c15,0.8,34.4-0.8,35.3,18.7c0.3,6.9-0.7,15.5-5.6,20.7c-5.2,5.5-13.8,7-21,8.1
	c-7,1.1-16.9,2.8-23.6,0.1c-7.3-3-9.3-11.9-9.7-19c-0.3-6.8,0.1-17.3,4.1-23.2c4.5-6.8,13.6-5,20.5-5
	C460.6,66.3,460.6,66.1,460.7,66z M445.3,71.2c-2.6,2.3-4.1,5.3-4.9,8.5c-2.5,10-3.5,27.8,9.9,30c10.6,1.8,26.5,1.4,35.5-5.5
	c7.6-5.8,10.4-25.9,0.6-30.8C475.1,67.8,457.3,70.2,445.3,71.2z"/>
<path class="st0" d="M241.1,359.2c0.4-4.8,22.8-3.2,15.8,1.7c0.3,3.6,0.2,7.5,1.1,11c1,4,3.7,6.5,6.4,9.6c2.5,2.9,5.5,5.7,7.7,8.8
	c2.9,4,2.5,5.4-1.3,8.2c-11.8,8.5-28.9,5-40.2-2.2c2.1-6.3,6.4-11,10-16.4c3-4.5,2.7-11,2.5-16.4
	C242.9,361.8,242.8,360.1,241.1,359.2z M246.7,360.7c0,1.2,0,2.4,0,3.6c0.2,5.4,1.1,10.2-1.7,15c-3,5-6.8,9.7-10.2,14.5
	c1.1,5,13.3,5,17,5c6.7,0.1,12.1-1.4,17.6-5.6c-3.6-5.8-8.8-10.7-12.3-16.6c-3-5-1.3-11.2-4.1-16.1
	C250.9,360.6,248.9,360.2,246.7,360.7z"/>
<path class="st0" d="M418.4,255.1c10.3,0,20.7-0.3,31-0.7c5-0.2,10-0.5,15-0.8c3.1-0.2,8.5-1.6,11.5-0.3c5.7,2.5,3.4,17.5,3.5,22.7
	c0.1,4.9,0.3,9.8,0.5,14.6c0.1,3,1.2,7.3-1.2,9.7c-2.3,2.2-6.9,1.3-9.8,1.3c-4.8-0.1-9.7-0.1-14.5-0.1c-9.8,0.1-19.7,0.3-29.4,1.1
	c-4.2,0.3-7.8,1.3-9.5-3.4c-1.4-3.8-0.5-8.7-0.5-12.7c0-5.4-0.1-10.8-0.1-16.2c0-3.4-1.3-9.6,1.3-12.4
	C417,257,417.6,256,418.4,255.1z M476.3,256.9c-1-0.8-2.1-0.7-3.2-0.7c-14.8-0.1-29.8-1.1-44.6,0.1c-4.8,0.4-10.2-0.5-11.4,4.9
	c-1.4,6.6-0.2,14.8,0.2,21.5c0.2,4.1-1.1,14.4,2.3,17.3c3.1,2.6,12.8,0.9,16.7,0.9c7.1,0,14.1,0,21.2-0.4c5.2-0.3,14.1,0.8,18.5-2.6
	C477.4,290.8,477.5,261,476.3,256.9z"/>
<path class="st0" d="M32.8,318.1c-1.2-4.1-2.5-14.9-0.7-18.8c3.4,4.3,8.9,9,13.8,11.4c5.7-3.4,11.3-6.8,17.4-9.3
	c2.1,4,0.6,12.3-0.4,16.6C52.8,312.4,42.9,312.6,32.8,318.1z"/>
<path class="st0" d="M342.8,232.9c2.1-3,21.9,7.1,24.9,8.4c4.6,2,9.1,4.1,13.5,6.3c2.2,1.1,10.7,3.9,11.3,6.3c1,4.3-6.7,0.2-7.4,0
	c-4.8-1.9-9.6-3.9-14.3-6c-9.2-4.1-18.3-8.5-26.8-13.9C343.5,233.7,343.2,233.3,342.8,232.9z"/>
<path class="st0" d="M90,114.2c9.2,2.7,17.9,7.7,26.3,12.3c5,2.7,10,5.4,15,7.9c2.2,1.1,9.9,3.2,10.5,6.3c1,5.6-7.7,0-9.1-0.8
	c-4.5-2.5-8.9-5.1-13.4-7.7c-9.8-5.8-19.8-11.4-29.4-17.4C90,114.5,90,114.3,90,114.2z"/>
<path class="st0" d="M352.4,124.5c11.3-5.5,23.7-9.6,35.5-14c3.5-1.3,27.9-12.2,29.2-8.8c1.3,3.5-25.3,10.7-29.3,12.1
	c-11.4,3.9-23.3,9.1-35.2,11.2C352.5,124.9,352.5,124.7,352.4,124.5z"/>
<path class="st0" d="M85.7,264.6c1.3-3.4,9.4-7.5,12.3-9.7c4.9-3.6,9.9-7.2,14.9-10.7c4.1-2.9,8.3-5.8,12.4-8.7
	c1.9-1.4,9.3-8.8,11.9-7.7c4.9,2.1-2.7,5.8-4.3,6.7c-4.9,2.9-9.5,6.3-14.2,9.4c-10.4,6.9-20.7,13.8-31.3,20.3
	C87,264.6,86.5,265.2,85.7,264.6z"/>
<path class="st0" d="M250.7,344.8c-3.8-0.4-3.7-20.9-3.9-24c-0.7-7.9-2.5-16.8-1-24.6c3.2,5.8,2.8,14.9,3.5,21.3
	c1,8.3,2.6,17,2.7,25.4C251.9,343.7,251.7,344.5,250.7,344.8z"/>
<path class="st0" d="M236.3,15.3c0.9,4,5.8,37.4,2.1,37.7c-4,0.4-3.5-33.6-2.7-37.7C235.9,15.4,236.1,15.3,236.3,15.3z"/>
<path class="st0" d="M199.8,234.7c-5.5,2.9-12.8,7.9-19.4,7.1c1.2-6.7,6.8-12.4,9.5-18.5c-5.1,3-9.8,6.4-14.6,9.8
	c-0.8-3.7,2.1-8,3.6-11.2c-3.7-2.2-7.7-3.8-11.3-6.4c-0.4-22.8,0.7-45.5-0.7-68.3c11.4-12.2,24.1-23.4,36.7-34.3
	c12.8-11,25.8-23,39.8-32.6c13.6,8.1,26,18.7,39.4,27.3c13.9,9,29.1,17.3,42.3,27.4c-1.1,25.6-1.4,51.3-2.9,76.9
	c-19.8,13.6-40.9,25.5-61.2,38.3c-4.9,3.1-9.6,6.3-14.5,9.2c-5.9,3.5-8.7,0.8-14.1-2.5c-10.6-6.5-20.7-13.9-30.8-21.1
	C201,235.5,200.3,235,199.8,234.7z M219.9,181.3c-0.1,1.5-0.3,3-0.4,4.5c-3.9-0.4-4.8,2.1-5.4,5.6c-4.5,2.1-8.4,4.5-12.3,7.5
	c-3,2.3-8,5-9.5,8.7c2.4-0.2,4.2-1.7,6.5-1.8c-1.4,3.5-6.4,6.5-8.9,9.3c-2.6,2.9-4.9,6.1-6.8,9.5c3.7-2.3,7.1-4.4,11-6.9
	c-0.9,3.2-1.5,6.7-2.8,9.7c-1.6,3.9-4.4,7.1-6.1,10.9c4.7-2.1,9.1-4.7,13.6-7.2c4.4-2.5,7.4-6.3,11.1-9.7c-0.1,2.3-0.2,4.1-0.3,5.9
	c5.8,3.5,15.1-21.4,16.8-24.4c4.6,1.2,5.9-2.6,6.9-6.4c0.7-0.1,1.2-0.3,1.9-0.4c0.9,5.1-1.3,10.7-2.2,15.6
	c12.2-2.4,17.3-12.2,18.9-23.6c9.9-4.7,16-13.2,21.9-22.1c3.3-4.9,6-10.2,7.9-15.8c1.4-4.1,4.6-12,3.4-16.3c-10.7,0-23.4,6-33,10.2
	c-10.5,4.6-17.8,9.7-25,18.7c-7.3,1.3-12,2.8-17.7,7.8c-4.4,3.9-8.7,8.2-9.4,14.4C206,183.4,213.8,179.8,219.9,181.3z M302.3,161.7
	c-1.1,1.4-1.9,2.7-2.9,3.8c-1.1,1.2-2.3,2.2-3.4,3.4c2.1,1.9,3.5,3.6,5,5.9c1.4-2.3,2.7-4.4,5.3-5.6
	C303.5,167.3,303.2,164.4,302.3,161.7z M247.5,113c0.8,1.7,1.6,3.3,2.4,5.1c1.1-1.6,2-2.9,2.9-4.1c-0.8-1.6-1.5-3-2.3-4.7
	C249.5,110.6,248.6,111.8,247.5,113z M240.5,103.2c-0.5-0.8-1-1.5-1.5-2.3c-0.8,1-1.4,1.8-2.1,2.6c0.5,0.8,1,1.5,1.6,2.3
	C239.2,104.9,239.8,104.2,240.5,103.2z"/>
<path class="st0" d="M21.5,98.3c2.4,1,5.1-1.8,7.4-0.6c1.6,0.9,2.5,6.8,2,8.3c-0.8,2.4-4.3,3.1-6.8,2.7c-4.2-0.7-3.5-4.3-3.9-8.4
	C20.1,99.5,20.4,98.8,21.5,98.3z M24.8,102.8c-0.5-0.7-1-1.2-1.5-1.8c-0.1,1.4-0.4,2.8,0.4,4.3C24.2,104.3,24.5,103.7,24.8,102.8z
	 M26.6,105c-0.2,0.2-0.3,0.4-0.7,0.9c0.6-0.1,0.9-0.1,1.3-0.2C27,105.4,26.8,105.3,26.6,105z M26,100.1c-0.3-0.2-0.5-0.2-0.5,0.2
	C25.8,100.6,26,100.5,26,100.1z M28.3,102.9c0-0.1-0.1-0.1-0.1-0.2c-0.2,0.1-0.2,0.3,0.1,0.4C28.2,103.1,28.3,103,28.3,102.9z"/>
<path class="st0" d="M24,114.5c4.8-2.2,14-3.2,10.8,5.7c-1.1,3.2-10.7,6.7-10.8,1.3C24,119.3,24,117,24,114.5z M26.5,115.4
	c0,2.1-0.1,4,0.4,6c2.4,0,3.4-0.3,5.4-1.2c0.6-1.8,0.1-3.5-0.5-5.4C30,114.7,28.3,114.7,26.5,115.4z"/>
<path class="st0" d="M17.6,84.7c2.7-0.4,5.3-0.8,8-1.2c1.9,3.7,2.4,9.3-1.6,10.7c-6.6,2.3-6.2-3.7-6.7-8.3
	C17.1,85.5,17.5,85,17.6,84.7z M24.3,85.6c-1.5,0.4-2.8,0.1-4,0.7c0.2,1.8,0.5,3.6,0.7,5.3c1.3,0,2.5,0.3,3.6-0.2
	C24.8,89.5,24.4,87.5,24.3,85.6z"/>
<path class="st0" d="M33.5,104.3c0.3-2.1,19.6-5.9,21.1-4.5c1.6,2.4-17.1,4.7-19.2,5.1C34.6,105,34.5,105,33.5,104.3z"/>
<path class="st0" d="M57.4,115.7c-0.5,2.9-15.2,3-17.9,2.4c-1.1-2.1,13.6-2.9,15.5-3.1C55.9,114.9,56.7,114.8,57.4,115.7z"/>
<path class="st0" d="M51.6,86.1c-2.2,3.3-17.1,2.2-21,2.4c5.3-2.4,12.8-2.7,18.6-3.3C50,85,51,85,51.6,86.1z"/>
<path class="st0" d="M474.5,86.1c-5.3,4.3-10.7,8-17.2,10.6c-0.3-5.5-0.5-10.8-0.8-16.1c2.8-0.5,9.3,2.7,12.3,3.3
	C470.7,84.4,472.6,84.9,474.5,86.1z"/>
<path class="st0" d="M238.4,392c3.3-4.5,5.8-9.6,9.7-13.9c1.8-0.2,3.6-0.4,5.2-0.5c2.8,2.1,13,12.5,11.6,16
	c-2.2,5.5-17.6,3.4-21.5,2.2C241.4,395.2,239.6,394.2,238.4,392z M256.6,384.3c0-1.2-1-2.2-2.2-2.1
	C248.7,382.4,256.9,390.1,256.6,384.3z M258.5,390.2c-0.9-0.6-1.8-0.9-2.8-0.5C253.6,393.3,259.8,394.2,258.5,390.2z M248.9,386.6
	c-0.6,0.1-1.2,0.7-1.1,1.4C248,392,252.7,386.3,248.9,386.6z M250.7,382.6c0-0.7-0.7-1.4-1.4-1.4
	C245.9,381.5,250.7,385.9,250.7,382.6z M252,393c-0.4-0.3-0.7-0.6-1-0.6C249.8,392.3,250,395.2,252,393z M244.1,391.5
	c-0.9,0.1-1,0.5-0.8,1.3C244.6,392.7,244.6,392.7,244.1,391.5z"/>
<path class="st0" d="M422,262.3c8.6-2,18.3-1.5,27.1-2.1c8.4-0.6,16.3-0.2,24.6,0.3c1.1,6.1,0.8,12.8,0.9,18.9
	c0.1,4.6,1.8,13-1.8,16.6c-13.1,0.6-26.1,0.9-39.2,1.3c-5.2,0.2-10.8,2-12.2-4.3c-1.5-6.3-0.4-13.9-0.4-20.4
	C420.9,269.2,421.5,265.8,422,262.3z M440.6,276.4c-0.2-2.7-2.3-4.3-4.2-6.1c-1.1-1-2.3-2.1-4.2-1.7c0.7,3,3.7,4.8,5.3,7.2
	c-1.8,1.2-7.7,4-4.4,6.5C435.5,280.5,437.9,278.6,440.6,276.4z M458.7,284c-2.1-0.1-4.1-0.2-6-0.4c-3-0.2-6.4,0.5-9,2
	c3.3,2.6,10.8,1.5,14.5,0.7C458.4,285.5,458.5,284.8,458.7,284z"/>
<path class="st0" d="M204.6,181.4c2-9.1,16.1-13.8,24.1-14c7.6-7.2,15-14.6,23.9-20.2c8-5,18.1-6.5,27.4-7.2
	c1.8,2.8-2.2,10-3.4,12.6c-2,4.5-4.2,9.1-6.7,13.3c-5.2,8.7-13.5,14.3-21.4,20.5c-1.8,8.3-4.3,13.5-10.5,19.3
	c-2.5-1.3,2-12.6,1.1-15.1c-2.5-0.2-4.8,1.1-7.4,0.9c-2.4-1.8-5.6-2.6-7.7-5.5c0.7-3,1.8-6.1,1.8-9.6c-3.6-2-15.3,3.4-19.1,4.4
	C206.1,181.1,205.4,181.2,204.6,181.4z M271.5,153.8c-0.1-0.5-0.1-1.5-0.3-2.5c-1.8-8-16.6-1.9-12.8,6.9
	C261.8,166.2,271.5,160.7,271.5,153.8z M243.4,173.2c-1.8-0.1-2.6,0.3-2.6,1.6c0.4,0.2,1,0.6,1.5,0.9
	C243.4,174.6,243.4,174.6,243.4,173.2z M249.8,177.3c-0.5-0.4-0.9-0.7-1.3-0.8C246.8,176.1,246.7,181,249.8,177.3z M237.4,170.3
	c1.7-0.7,1.7-0.7,1.5-2.2C237.2,167.6,237.3,169.1,237.4,170.3z M256.2,177.3c-1.3-0.2-2.1-0.3-2.6,0.9
	C254.5,178.4,255.3,178.6,256.2,177.3z M235.2,165c1.6-0.5,1.5-0.5,1.1-2.1C235.5,163.3,235.1,163.9,235.2,165z"/>
<path class="st0" d="M221.8,201.5c2.1,6.2-5.9,15.1-9.2,19.7c-1-3.1,0.6-7.1,1.2-10.1c-5.7,5.2-11.3,12-18.2,15.7
	c-0.5-4.7,3.4-12.6,8.1-16.6c0,0,0,0,0-0.1c0,0-0.1,0.1-0.1,0.1c-1.6,0.3-3.5,1.1-5.1,1.2c1.8-2.8,3.4-5.4,5-8
	c-1.3-0.5-2.5,0.9-3.6,0l0,0.1c4.4-3.2,9.5-7.3,14.7-9.2c0.2,1.7-0.8,3-0.9,4.8c0.7-0.5,1.3-0.9,2-1.3c0.2,2.5-2.1,4.5-0.7,6.9
	c1-0.8,1.9-1.5,2.9-2.3c0.6,1,0.3,1.8,0.2,2.8C219.4,204,220.9,203,221.8,201.5L221.8,201.5z"/>
<path class="st0" d="M231.5,196.8c0.3,9.1-20.1-4.8-11.2-8.8c1.8,1.5,3.5,3.1,5.3,4.6C227.4,194,229.4,195.3,231.5,196.8z"/>
<path class="st0" d="M199.8,203.5c0,0.1,0.1,0.1,0.1,0.2C199.9,203.6,199.9,203.6,199.8,203.5L199.8,203.5z"/>
<polygon class="st0" points="221.8,201.5 221.9,201.6 221.8,201.5 "/>
<path class="st0" d="M268.2,157.9c0.9-3.5-0.1-6-3.6-7.7c3.4-1,5.5,2.9,5.4,5.8C270,157,269.4,157.6,268.2,157.9z"/>
</svg>
